<svg xmlns="http://www.w3.org/2000/svg" viewBox="0 0 100 100"><defs><radialGradient id="g" cx="50%" cy="40%" r="65%"><stop offset="0%" stop-color="#C976FF"/><stop offset="60%" stop-color="#9B5BD6"/><stop offset="100%" stop-color="#5D3680"/></radialGradient></defs><circle cx="50" cy="50" r="47" fill="#C976FF" opacity="0.22"/><circle cx="50" cy="50" r="44" fill="url(#g)"/><circle cx="50" cy="50" r="44" fill="none" stroke="#C976FF" stroke-width="2.5" opacity="0.5"/><g><path d="M31 50 L16 41 L16 59 Z" fill="#F7EFE3"/><path d="M69 50 L84 41 L84 59 Z" fill="#F7EFE3"/><circle cx="50" cy="50" r="17" fill="#F7EFE3"/><path d="M50 34 Q61 50 50 66 Q39 50 50 34 Z" fill="#3B2F25" opacity="0.18"/><path d="M34 50 Q50 39 66 50 Q50 61 34 50 Z" fill="#3B2F25" opacity="0.12"/></g><path d="M37 27 L41 15 L50 23 L59 15 L63 27 Z" fill="#F4C542" stroke="#C9971F" stroke-width="1.5" stroke-linejoin="round"/><circle cx="50" cy="30" r="2.2" fill="#E0433A"/></svg>