<svg xmlns="http://www.w3.org/2000/svg" viewBox="0 0 64 64" width="64" height="64"><defs><radialGradient id="tg3" cx="0.35" cy="0.3" r="0.85"><stop offset="0" stop-color="#ffe08a"/><stop offset="1" stop-color="#f5c842"/></radialGradient><linearGradient id="rg3" x1="0" y1="0" x2="0" y2="1"><stop offset="0" stop-color="#ffe08a"/><stop offset="1" stop-color="#f5c842"/></linearGradient></defs><circle cx="32" cy="32" r="27" fill="url(#rg3)" stroke="#f5c842" stroke-width="3"/><circle cx="55.0" cy="32.0" r="2.3" fill="#fff" opacity="0.9"/><circle cx="51.9" cy="43.5" r="2.3" fill="#fff" opacity="0.9"/><circle cx="43.5" cy="51.9" r="2.3" fill="#fff" opacity="0.9"/><circle cx="32.0" cy="55.0" r="2.3" fill="#fff" opacity="0.9"/><circle cx="20.5" cy="51.9" r="2.3" fill="#fff" opacity="0.9"/><circle cx="12.1" cy="43.5" r="2.3" fill="#fff" opacity="0.9"/><circle cx="9.0" cy="32.0" r="2.3" fill="#fff" opacity="0.9"/><circle cx="12.1" cy="20.5" r="2.3" fill="#fff" opacity="0.9"/><circle cx="20.5" cy="12.1" r="2.3" fill="#fff" opacity="0.9"/><circle cx="32.0" cy="9.0" r="2.3" fill="#fff" opacity="0.9"/><circle cx="43.5" cy="12.1" r="2.3" fill="#fff" opacity="0.9"/><circle cx="51.9" cy="20.5" r="2.3" fill="#fff" opacity="0.9"/><circle cx="32" cy="32" r="21" fill="url(#tg3)" stroke="#fff" stroke-width="1.3" opacity="0.97"/><path d="M19 21 a15 15 0 0 1 26 0" fill="#fff" opacity="0.18"/><g fill="#fff"><circle cx="32" cy="32" r="5"/><polygon points="43.0,32.0 45.9,30.0 45.9,34.0" fill="#fff"/><polygon points="41.5,37.5 45.0,37.2 43.0,40.6" fill="#fff"/><polygon points="37.5,41.5 40.6,43.0 37.2,45.0" fill="#fff"/><polygon points="32.0,43.0 34.0,45.9 30.0,45.9" fill="#fff"/><polygon points="26.5,41.5 26.8,45.0 23.4,43.0" fill="#fff"/><polygon points="22.5,37.5 21.0,40.6 19.0,37.2" fill="#fff"/><polygon points="21.0,32.0 18.1,34.0 18.1,30.0" fill="#fff"/><polygon points="22.5,26.5 19.0,26.8 21.0,23.4" fill="#fff"/><polygon points="26.5,22.5 23.4,21.0 26.8,19.0" fill="#fff"/><polygon points="32.0,21.0 30.0,18.1 34.0,18.1" fill="#fff"/><polygon points="37.5,22.5 37.2,19.0 40.6,21.0" fill="#fff"/><polygon points="41.5,26.5 43.0,23.4 45.0,26.8" fill="#fff"/></g></svg>